<?xml version="1.0" encoding="UTF-8"?>
<svg width="700pt" height="700pt" version="1.1" viewBox="0 0 700 700" xmlns="http://www.w3.org/2000/svg">
 <path d="m349.98 28.211c-71.102 0-128.75 57.645-128.75 128.75 0 42.191 20.336 79.59 51.73 103.11l16.469 12.32-19.531 6.4062c-29.891 9.8359-57.961 25.184-82.477 45.359-45.012 37.012-76.316 88.707-88.113 145.41-3.2031 15.434 0.57812 31.098 10.484 43.262 9.8516 12.109 24.309 18.988 39.918 18.988h252.56c5.5469 0 9.8164-4.2695 9.8164-9.8164 0-5.5469-4.2344-9.7656-9.7812-9.7812h-252.56c-12.758 0-21.141-7.3867-24.711-11.777-6.0898-7.4883-8.5234-17.379-6.5625-26.863v-0.035156c22.297-107.12 116.74-185.32 225.82-187.97h0.64844c1.6797 0.050782 3.3594 0.10547 5.0586 0.10547 1.7344 0 3.4141-0.035156 5.0742-0.10547h0.64844c33.371 0.76953 65.641 8.4336 95.672 22.715 5.0039 2.3789 10.656 0.36719 13.02-4.6367 2.3633-5.0039 0.36719-10.656-4.6367-13.02-9.7109-4.6016-19.566-8.5938-29.594-11.898l-19.461-6.4414 16.379-12.285c31.344-23.52 51.625-60.898 51.625-103.04 0-71.086-57.68-128.75-128.77-128.75zm0.03125 19.598c60.094 0 109.15 49.051 109.15 109.15 0 58.238-46.008 106.09-103.58 108.99l-0.38672 0.035157h-0.38672c-1.6641-0.035157-3.2539-0.070313-4.7969-0.070313-1.5391 0-3.0781 0.035156-4.7266 0.070313h-0.38672l-0.38672-0.035157c-57.594-2.8711-103.65-50.75-103.65-108.99 0-60.094 49.051-109.15 109.15-109.15zm165.08 310.59c-5.5664 0-9.7812 4.2188-9.7812 9.7812v67.113h-67.113c-5.5469 0-9.8164 4.2695-9.8164 9.8164s4.2539 9.7812 9.8164 9.7812h67.113v67.113c0 5.5664 4.2344 9.8164 9.7812 9.8164s9.8164-4.2695 9.8164-9.8164v-67.113h67.113c5.5664 0 9.7812-4.2188 9.7812-9.7812 0-5.5664-4.2344-9.8164-9.7812-9.8164h-67.113v-67.113c0-5.5469-4.2539-9.7812-9.8164-9.7812z"/>
</svg>
