<?xml version="1.0" encoding="UTF-8"?>
<svg width="700pt" height="700pt" version="1.1" viewBox="0 0 700 700" xmlns="http://www.w3.org/2000/svg">
 <path d="m349.96 28.211c-71.102 0-128.75 57.645-128.75 128.75 0 42.191 20.316 79.59 51.695 103.11l16.469 12.32-19.531 6.4062c-29.891 9.8359-57.961 25.184-82.477 45.359-45.012 37.012-76.316 88.707-88.113 145.41-3.2031 15.434 0.57812 31.098 10.484 43.262 9.8516 12.109 24.344 18.988 39.953 18.988h211.54c5.5469 0 9.7812-4.2539 9.7812-9.8164 0-5.5664-4.2188-9.7812-9.7812-9.7812h-211.54c-12.758 0-21.141-7.3867-24.711-11.777-6.0898-7.4883-8.5234-17.379-6.5625-26.863v-0.035156c22.297-107.12 116.74-185.32 225.82-187.97h0.64844c1.6797 0.050782 3.3594 0.10547 5.0586 0.10547s3.4141-0.035156 5.0742-0.10547h0.64844c47.703 1.1367 93.344 16.434 132.09 44.258 4.4961 3.2383 10.465 2.2383 13.703-2.2578s2.2734-10.43-2.2578-13.668c-21.352-15.348-44.609-27.125-69.074-35.191l-19.496-6.4062 16.414-12.32c31.324-23.52 51.625-60.883 51.625-103.04 0-71.102-57.645-128.75-128.75-128.75zm0 19.598c60.094 0 109.15 49.051 109.15 109.15 0 58.238-46.008 106.1-103.58 108.99l-0.38672 0.035157h-0.38672c-1.6641-0.035157-3.2383-0.070313-4.7617-0.070313-1.5234 0-3.1133 0.035156-4.7617 0.070313h-0.38672l-0.38672-0.035157c-53.848-2.6758-96.039-45.219-101.5-98.281h-2.1523v-10.711c0-60.094 49.051-109.15 109.15-109.15zm242.04 331.08c-2.5039 0-4.9883 0.91016-6.9492 2.8711l-59.711 59.746-59.711-59.746c-1.9414-1.9414-4.3906-2.8359-6.9492-2.8359-2.5547 0-5.0039 0.89062-6.9492 2.8359-3.9023 3.9023-3.9023 9.9922 0 13.895l59.746 59.711-59.746 59.711c-3.9219 3.9219-3.9219 9.957 0 13.859 1.9414 1.9414 4.4609 2.8711 6.9492 2.8711 2.4844 0 4.9531-0.89062 6.9141-2.8711l59.711-59.746 59.711 59.746c1.9414 1.9414 4.4609 2.8711 6.9492 2.8711 2.4844 0 4.9531-0.89062 6.9141-2.8711 3.9219-3.9219 3.9219-9.957 0-13.859l-59.711-59.711 59.746-59.711c3.9023-3.9023 3.9023-9.9922 0-13.895-1.9766-1.9766-4.4102-2.8711-6.9141-2.8711z"/>
</svg>
